TITLE ""
FILE "2Q_t_0470-0487.mp3" MP3
  TRACK 01 AUDIO
    TITLE "2Q_t_0470-0487_01"
    INDEX 01 00:00:00
  TRACK 02 AUDIO
    TITLE "2Q_t_0470-0487_02"
    INDEX 01 00:00:12
  TRACK 03 AUDIO
    TITLE "2Q_t_0470-0487_03"
    INDEX 01 00:01:25
  TRACK 04 AUDIO
    TITLE "2Q_t_0470-0487_04"
    INDEX 01 00:02:05
  TRACK 05 AUDIO
    TITLE "2Q_t_0470-0487_05"
    INDEX 01 00:06:32
  TRACK 06 AUDIO
    TITLE "2Q_t_0470-0487_06"
    INDEX 01 00:07:01
  TRACK 07 AUDIO
    TITLE "2Q_t_0470-0487_07"
    INDEX 01 00:08:14
  TRACK 08 AUDIO
    TITLE "2Q_t_0470-0487_08"
    INDEX 01 00:08:59
  TRACK 09 AUDIO
    TITLE "2Q_t_0470-0487_09"
    INDEX 01 00:10:66
  TRACK 10 AUDIO
    TITLE "2Q_t_0470-0487_10"
    INDEX 01 00:11:36
  TRACK 11 AUDIO
    TITLE "2Q_t_0470-0487_11"
    INDEX 01 00:12:37
  TRACK 12 AUDIO
    TITLE "2Q_t_0470-0487_12"
    INDEX 01 00:13:09
  TRACK 13 AUDIO
    TITLE "2Q_t_0470-0487_13"
    INDEX 01 00:16:58
  TRACK 14 AUDIO
    TITLE "2Q_t_0470-0487_14"
    INDEX 01 00:17:28
  TRACK 15 AUDIO
    TITLE "2Q_t_0470-0487_15"
    INDEX 01 00:18:45
  TRACK 16 AUDIO
    TITLE "2Q_t_0470-0487_16"
    INDEX 01 00:19:23
  TRACK 17 AUDIO
    TITLE "2Q_t_0470-0487_17"
    INDEX 01 00:22:12
  TRACK 18 AUDIO
    TITLE "2Q_t_0470-0487_18"
    INDEX 01 00:22:57
  TRACK 19 AUDIO
    TITLE "2Q_t_0470-0487_19"
    INDEX 01 00:23:56
  TRACK 20 AUDIO
    TITLE "2Q_t_0470-0487_20"
    INDEX 01 00:24:36
  TRACK 21 AUDIO
    TITLE "2Q_t_0470-0487_21"
    INDEX 01 00:26:63
  TRACK 22 AUDIO
    TITLE "2Q_t_0470-0487_22"
    INDEX 01 00:27:33
  TRACK 23 AUDIO
    TITLE "2Q_t_0470-0487_23"
    INDEX 01 00:28:38
  TRACK 24 AUDIO
    TITLE "2Q_t_0470-0487_24"
    INDEX 01 00:29:12
  TRACK 25 AUDIO
    TITLE "2Q_t_0470-0487_25"
    INDEX 01 00:31:48
  TRACK 26 AUDIO
    TITLE "2Q_t_0470-0487_26"
    INDEX 01 00:32:18
  TRACK 27 AUDIO
    TITLE "2Q_t_0470-0487_27"
    INDEX 01 00:33:29
  TRACK 28 AUDIO
    TITLE "2Q_t_0470-0487_28"
    INDEX 01 00:34:05
  TRACK 29 AUDIO
    TITLE "2Q_t_0470-0487_29"
    INDEX 01 00:36:65
  TRACK 30 AUDIO
    TITLE "2Q_t_0470-0487_30"
    INDEX 01 00:37:33
  TRACK 31 AUDIO
    TITLE "2Q_t_0470-0487_31"
    INDEX 01 00:38:60
  TRACK 32 AUDIO
    TITLE "2Q_t_0470-0487_32"
    INDEX 01 00:39:32
  TRACK 33 AUDIO
    TITLE "2Q_t_0470-0487_33"
    INDEX 01 00:41:56
  TRACK 34 AUDIO
    TITLE "2Q_t_0470-0487_34"
    INDEX 01 00:42:28
  TRACK 35 AUDIO
    TITLE "2Q_t_0470-0487_35"
    INDEX 01 00:43:51
  TRACK 36 AUDIO
    TITLE "2Q_t_0470-0487_36"
    INDEX 01 00:44:23
  TRACK 37 AUDIO
    TITLE "2Q_t_0470-0487_37"
    INDEX 01 00:45:38
  TRACK 38 AUDIO
    TITLE "2Q_t_0470-0487_38"
    INDEX 01 00:46:06
  TRACK 39 AUDIO
    TITLE "2Q_t_0470-0487_39"
    INDEX 01 00:47:16
  TRACK 40 AUDIO
    TITLE "2Q_t_0470-0487_40"
    INDEX 01 00:47:69
  TRACK 41 AUDIO
    TITLE "2Q_t_0470-0487_41"
    INDEX 01 00:50:43
  TRACK 42 AUDIO
    TITLE "2Q_t_0470-0487_42"
    INDEX 01 00:51:16
  TRACK 43 AUDIO
    TITLE "2Q_t_0470-0487_43"
    INDEX 01 00:52:50
  TRACK 44 AUDIO
    TITLE "2Q_t_0470-0487_44"
    INDEX 01 00:53:24
  TRACK 45 AUDIO
    TITLE "2Q_t_0470-0487_45"
    INDEX 01 00:55:72
  TRACK 46 AUDIO
    TITLE "2Q_t_0470-0487_46"
    INDEX 01 00:56:42
  TRACK 47 AUDIO
    TITLE "2Q_t_0470-0487_47"
    INDEX 01 00:57:49
  TRACK 48 AUDIO
    TITLE "2Q_t_0470-0487_48"
    INDEX 01 00:58:23
  TRACK 49 AUDIO
    TITLE "2Q_t_0470-0487_49"
    INDEX 01 00:59:44
  TRACK 50 AUDIO
    TITLE "2Q_t_0470-0487_50"
    INDEX 01 01:00:12
  TRACK 51 AUDIO
    TITLE "2Q_t_0470-0487_51"
    INDEX 01 01:01:33
  TRACK 52 AUDIO
    TITLE "2Q_t_0470-0487_52"
    INDEX 01 01:02:06
  TRACK 53 AUDIO
    TITLE "2Q_t_0470-0487_53"
    INDEX 01 01:04:30
  TRACK 54 AUDIO
    TITLE "2Q_t_0470-0487_54"
    INDEX 01 01:04:75
  TRACK 55 AUDIO
    TITLE "2Q_t_0470-0487_55"
    INDEX 01 01:06:09
  TRACK 56 AUDIO
    TITLE "2Q_t_0470-0487_56"
    INDEX 01 01:06:60
  TRACK 57 AUDIO
    TITLE "2Q_t_0470-0487_57"
    INDEX 01 01:09:35
  TRACK 58 AUDIO
    TITLE "2Q_t_0470-0487_58"
    INDEX 01 01:10:05
  TRACK 59 AUDIO
    TITLE "2Q_t_0470-0487_59"
    INDEX 01 01:11:44
  TRACK 60 AUDIO
    TITLE "2Q_t_0470-0487_60"
    INDEX 01 01:12:16
  TRACK 61 AUDIO
    TITLE "2Q_t_0470-0487_61"
    INDEX 01 01:15:08
  TRACK 62 AUDIO
    TITLE "2Q_t_0470-0487_62"
    INDEX 01 01:15:55
  TRACK 63 AUDIO
    TITLE "2Q_t_0470-0487_63"
    INDEX 01 01:16:62
  TRACK 64 AUDIO
    TITLE "2Q_t_0470-0487_64"
    INDEX 01 01:17:38
  TRACK 65 AUDIO
    TITLE "2Q_t_0470-0487_65"
    INDEX 01 01:19:12
  TRACK 66 AUDIO
    TITLE "2Q_t_0470-0487_66"
    INDEX 01 01:19:59
  TRACK 67 AUDIO
    TITLE "2Q_t_0470-0487_67"
    INDEX 01 01:21:03
  TRACK 68 AUDIO
    TITLE "2Q_t_0470-0487_68"
    INDEX 01 01:21:52
  TRACK 69 AUDIO
    TITLE "2Q_t_0470-0487_69"
    INDEX 01 01:23:25
  TRACK 70 AUDIO
    TITLE "2Q_t_0470-0487_70"
    INDEX 01 01:23:68
  TRACK 71 AUDIO
    TITLE "2Q_t_0470-0487_71"
    INDEX 01 01:25:09
  TRACK 72 AUDIO
    TITLE "2Q_t_0470-0487_72"
    INDEX 01 01:25:65
  TRACK 73 AUDIO
    TITLE "2Q_t_0470-0487_73"
    INDEX 01 01:27:19
